<svg xmlns="http://www.w3.org/2000/svg" xmlns:xlink="http://www.w3.org/1999/xlink" id="Camada_2" viewBox="0 0 184.22 142.41"><defs><style>.cls-1{fill:url(#linear-gradient-2);}.cls-2{fill:url(#linear-gradient-3);}.cls-3{fill:url(#linear-gradient);}.cls-4{fill:url(#linear-gradient-4);}</style><linearGradient id="linear-gradient" x1="0" y1="64.08" x2="184.22" y2="64.08" gradientUnits="userSpaceOnUse"><stop offset="0" stop-color="#008c40"></stop><stop offset="1" stop-color="#0ace57"></stop></linearGradient><linearGradient id="linear-gradient-2" x1="21.14" y1="104.4" x2="141.07" y2="104.4" xlink:href="#linear-gradient"></linearGradient><linearGradient id="linear-gradient-3" x1="2.11" y1="20.65" x2="45.48" y2="20.65" xlink:href="#linear-gradient"></linearGradient><linearGradient id="linear-gradient-4" x1="46.59" y1="10.52" x2="69.26" y2="10.52" xlink:href="#linear-gradient"></linearGradient></defs><g id="Camada_1-2"><g><path class="cls-3" d="M180.57,11c-2.39,5.26-1.52,4.84-3.75,9.61-1.99,4.25-4.33,8.28-7.05,12.1-1.61,2.25-3.34,4.41-5.16,6.5-1.8,2.07-3.77,3.95-5.7,5.89-.26,.26-.5,.55-.76,.82,0,.01,0,.02-.02,.04-.48,1.16-1.58,1.73-2.46,2.48-9.13,7.79-19.4,13.72-30.42,18.41-8.18,3.48-16.6,6.25-25.32,8.04-6.12,1.25-12.26,2.41-18.31,3.99-10.43,2.72-20.54,6.3-30.09,11.31-6.58,3.45-12.77,7.51-18.21,12.62-.07,.08-.16,.15-.25,.22-.08,.07-.17,.13-.26,.19-.01,0-.02,.02-.04,.03-1.15,.84-2.07,1.92-3.04,2.94-.03,.06-.07,.12-.12,.18-.02,.02-.03,.04-.04,.06-.06,.07-.12,.14-.18,.21-.03,.03-.06,.07-.09,.1-.06,.07-.12,.13-.19,.19-.03,.03-.06,.06-.09,.09-.09,.09-.18,.19-.28,.28-.06,.07-.12,.13-.18,.19-.06,.07-.12,.13-.19,.2-.03,.03-.06,.06-.09,.1-.02,.02-.03,.03-.05,.05-.2,.2-.39,.41-.55,.65,0,0-.01,.02-.02,.03-.05,.08-.1,.15-.16,.22-.05,.07-.12,.14-.17,.21-.03,.03-.06,.07-.09,.1-.09,.1-.18,.19-.27,.28-.05,.06-.12,.12-.17,.18-.11,.12-.22,.25-.31,.39-.04,.07-.09,.14-.14,.21-.05,.07-.11,.13-.17,.2-.03,.03-.06,.06-.09,.1-.06,.07-.12,.14-.17,.21-.03,.03-.06,.07-.09,.11-.03,.04-.06,.08-.09,.12h0c-.11,.15-.21,.31-.32,.45-.02,.03-.03,.05-.05,.07-.04,.05-.08,.1-.12,.15-.05,.06-.09,.11-.14,.17-.06,.08-.12,.16-.18,.24,0,0,0,0,0,0-.04,.07-.1,.14-.15,.21-.05,.07-.11,.13-.16,.2-.03,.03-.06,.07-.08,.1-.11,.13-.21,.27-.3,.42-.04,.07-.09,.15-.14,.22-.05,.08-.1,.15-.16,.22-.02,.02-.03,.05-.05,.08,0,.01-.02,.02-.03,.03-.14,.21-.27,.42-.41,.64,0,.02-.02,.03-.03,.05-.04,.07-.1,.15-.15,.22-.05,.07-.1,.13-.16,.2-.02,.03-.05,.06-.08,.1-.07,.1-.13,.21-.19,.31-.04,.07-.08,.14-.13,.21-.02,.03-.04,.06-.06,.08-.07,.1-.13,.2-.2,.31h0s0,.02-.01,.02c-.04,.08-.08,.15-.12,.23-.06,.12-.12,.24-.19,.36-.02,.05-.05,.09-.07,.13-.02,.04-.05,.08-.07,.12-.02,.03-.04,.07-.06,.1h0c-.86,1.35-1.56,2.78-2.24,4.22-.05,.1-.09,.2-.14,.3,0,0,0,.02-.01,.02-.04,.1-.09,.2-.15,.3,0,0,0,0,0,0-.04,.08-.08,.16-.12,.24-.83,1.66-1.49,3.39-2.08,5.15-.09,.28-.18,.57-.31,.84-.13,.27-.24,.61-.58,.63-.4,.02-.53-.36-.68-.65-.25-.5-.47-1.02-.67-1.55-.04-.09-.07-.19-.11-.28-.16-.41-.32-.81-.49-1.22-2.69-6.79-5.17-13.66-7.28-20.64-.07-.23-.14-.46-.21-.69-.86-2.86-1.65-5.75-2.37-8.65-.07-.31-.18-.62-.24-.94-.03-.15-.04-.3-.04-.45h0c0-.09,0-.18,.02-.26,0-.04,.02-.08,.02-.12,0,0,0,0,0,0,0,0,0-.02,0-.02,0,0,0,0,0-.01h0c.05-.55-.16-1.04-.28-1.55-.66-2.8-1.26-5.61-1.75-8.44-.38-2.24-.76-4.49-1.08-6.74-.22-1.59-.29-3.2-.53-4.78-.2-1.34-.16-2.68-.35-4.02-.14-.96-.05-1.94-.1-2.92-.09-1.83-.23-3.66-.16-5.49,.07-1.83,.12-3.66,.23-5.49,.1-1.53,.28-3.05,.44-4.57,.01-.15,.04-.3,.08-.44,.1-.37,.23-.49,.63-.49,.67-.01,1.35,0,2.02-.01,1.53-.05,3.05-.23,4.57-.39,2.16-.23,4.28-.64,6.38-1.19,4.21-1.1,8.23-2.7,12.04-4.84,2.45-1.38,4.76-2.97,6.97-4.69,1.45-1.13,2.77-2.39,4.05-3.71,.99-1.02,2.06-1.97,2.9-3.12,.29-.4,.72-.52,1.15-.63,.94-.24,1.89-.46,2.83-.7,4.45-1.16,8.6-3.02,12.54-5.37,2.16-1.28,4.2-2.74,6.12-4.35,1.92-1.61,3.72-3.35,5.37-5.25,1.77-2.04,3.39-4.19,4.83-6.46,1.1-1.74,2.03-3.58,2.92-5.44,.05-.1,.05-.22,.07-.33,.03-.05,.07-.1,.1-.14,.07-.1,.15-.21,.21-.32,.15-.3,.37-.45,.71-.43,.26,.01,.52,0,.79,0,.56,0,66.28,3.98,96.37,0,1.72-.23,8.32-1.14,9.67,1.48,.81,1.57-.79,3.36-3.44,9.18Z"></path><path class="cls-1" d="M141.07,66.66c-.02,.15-.06,.29-.1,.44-1.66,5.88-4.17,11.37-7.69,16.38-.18,.26-.34,.55-.51,.82,0,.01-.02,.02-.02,.03,.02,.5-.31,.83-.58,1.18-5.62,7.1-12.64,12.39-20.89,16.04-6.35,2.81-12.9,5.01-19.63,6.71-4.3,1.09-8.65,1.71-13.12,1.16-1.63-.2-3.3-.13-4.93-.01-2.34,.17-4.05,1.42-5.23,3.42-.78,1.33-1.36,2.75-1.84,4.21-1.27,3.92-3.7,7.04-6.65,9.83-2.07,1.95-4.16,3.87-6.47,5.55-1.79,1.3-3.7,2.4-5.66,3.44-.39,.21-.78,.47-1.27,.35-.01,0-.02,0-.04,.01-.23,.08-.47,.16-.69,.26-4.72,2.16-9.64,3.63-14.75,4.52-1.99,.34-3.97,.72-5.98,.94-.18,.02-.36,.1-.53,.15-.82,.14-1.64,.24-2.48,.23-.07,0-.15,0-.23,.01-.16,.1-.3,.14-.4-.06,0,0,0,0,0,0h0c-.14-.07-.15-.19-.15-.32h0s0-.05,0-.07c0-.02,0-.04,0-.06v-.02s0-.1,0-.15h0c-.02-.2-.1-.38-.07-.58,.08-.73,.13-1.45,.17-2.18,0-.03,0-.07,0-.1h0c0-.07,0-.13,.01-.19,.02-.36,.03-.71,.05-1.06,0-.25,.02-.49,.02-.74h0c.02-.65,.03-1.3,.05-1.95,0-.02,0-.03,0-.05h0c0-.1,0-.19,0-.28,0-.12,0-.24,0-.36,0-.12,.03-.24,.06-.36,.07-.24,.13-.49,.19-.73,.06-.24,.11-.48,.15-.72,.04-.19,.08-.38,.12-.58,.89-3.24,2.07-6.36,3.64-9.33,.13-.24,.26-.48,.41-.71,0,0,0,0,0,0,.21-.32,.44-.63,.71-.91h0s0-.01,0-.02c.09-.26,.24-.48,.42-.69h0s0,0,0,0c.59-1.55,1.66-2.79,2.68-4.05,.13-.11,.08-.34,.27-.42,0,0,0,0,.02,0h0c.5-.74,.99-1.48,1.55-2.17,0,0,0-.01,.01-.02,.2-.25,.41-.48,.62-.71,0,0,0-.01,.02-.02,.22-.23,.44-.45,.69-.66h0s0,0,0-.02c.03-.12,.11-.19,.22-.23,0,0,0,0,0,0h0c.08-.35,.34-.54,.64-.69h0c.17-.42,.53-.66,.87-.92h0c.2-.41,.5-.7,.89-.9h0c.56-.66,1.1-1.31,1.84-1.78,.15-.11,.31-.2,.45-.32,5.52-4.97,11.71-8.94,18.34-12.26,6.64-3.33,13.56-5.95,20.66-8.11,6.02-1.83,12.13-3.28,18.29-4.51,3.04-.61,6.11-1.09,9.13-1.82,7.8-1.88,15.39-4.38,22.78-7.49,4.25-1.79,8.4-3.77,12.45-5.96,.36-.2,.73-.39,1.09-.57,.1-.05,.21-.08,.29,.02,.04,.05,.06,.14,.05,.2Z"></path><path class="cls-2" d="M45.47,1.02c-.17,2.13-.52,4.23-1.03,6.3-.51,2.11-1.18,4.17-2,6.19-1.33,3.28-3.02,6.35-5.09,9.21-.35,.48-.76,.68-1.31,.72-2.13,.16-4.26,.37-6.39,.21-1.67-.12-3.35-.24-5.01-.53-1.96-.33-3.88-.81-5.78-1.34-1.18-.33-2.22-.04-3.1,.81-1.58,1.52-1.26,4.08,.65,5.16,.29,.16,.61,.3,.93,.39,2.55,.73,5.13,1.32,7.77,1.64,1.6,.19,3.19,.36,4.8,.42,.07,0,.13,.05,.27,.1-.17,.4-.46,.6-.71,.8-2.84,2.28-5.89,4.24-9.19,5.78-3.37,1.57-6.89,2.72-10.54,3.38-1.4,.25-2.8,.47-4.22,.54-.85,.05-1.7,.17-2.57,.17-1.03,0-.89-.13-.73-.85,.57-2.48,1.25-4.93,2.11-7.32,.94-2.61,2.03-5.15,3.31-7.61,1.8-3.47,3.92-6.71,6.44-9.7,1.62-1.93,3.38-3.71,5.26-5.37,3.15-2.8,6.66-5.08,10.49-6.84,2.38-1.1,4.87-1.95,7.44-2.44,1.79-.34,3.62-.55,5.46-.5,.71,.02,1.42,0,2.13,0,.56,.01,.65,.16,.61,.67Z"></path><path class="cls-4" d="M69.08,1.01c-.48,.89-.97,1.77-1.51,2.62-1.23,1.96-2.63,3.8-4.16,5.56-2.92,3.36-6.34,6.12-10.14,8.41-1.93,1.16-3.94,2.15-6.02,2.99-.17,.07-.33,.18-.66,.06,.16-.34,.29-.65,.44-.94,1.83-3.62,3.19-7.41,4.08-11.36,.34-1.49,.63-2.99,.81-4.51,.09-.78,.21-1.55,.23-2.34,0-.26,.09-.51,.15-.76,.06-.25,.24-.37,.49-.37,.19,0,.37,0,.56,0h15.15s.07,0,.11,0c.71,.01,.77,.09,.46,.67Z"></path></g></g></svg>